<?xml version="1.0" encoding="utf-8"?>
<!-- Generator: Adobe Illustrator 23.0.1, SVG Export Plug-In . SVG Version: 6.00 Build 0)  -->
<svg version="1.1" id="Layer_1" xmlns="http://www.w3.org/2000/svg" xmlns:xlink="http://www.w3.org/1999/xlink" x="0px" y="0px"
	 viewBox="0 0 24 24" style="enable-background:new 0 0 24 24;" xml:space="preserve">
<style type="text/css">
	.st0{fill:#FFFFFF;}
	.st1{fill:none;}
</style>
<path class="st0" d="M14.8,13.4h-0.5l-0.2-0.2c0.6-0.7,0.9-1.5,0.9-2.5c0-2.1-1.7-3.8-3.8-3.8s-3.8,1.7-3.8,3.8s1.7,3.8,3.8,3.8
	c0.9,0,1.8-0.3,2.5-0.9l0.2,0.2v0.5l2.9,2.9l0.9-0.9L14.8,13.4z M11.3,13.4c-1.5,0-2.6-1.2-2.6-2.6s1.2-2.6,2.6-2.6S14,9.3,14,10.7
	S12.8,13.4,11.3,13.4z"/>
<path class="st1" d="M0,0h24v24H0V0z"/>
</svg>
